<svg width="106" height="211" viewBox="0 0 106 211" fill="none" xmlns="http://www.w3.org/2000/svg">
<path d="M87.5377 209.729L86.9345 209.643C82.6259 208.867 78.2311 208.005 73.9225 206.539C64.0988 203.263 54.189 197.831 44.3654 190.416C39.0227 186.364 34.9726 182.571 31.698 178.518L31.4395 178.174L31.2672 177.829C24.7181 165.845 24.0287 152.395 23.3393 139.376C23.167 135.927 22.9947 132.651 22.7361 129.461C21.9606 120.408 15.5838 113.252 8.77623 105.751C8.17302 105.061 7.56978 104.372 6.96658 103.768C-8.28592 86.6109 6.0187 57.7282 19.3754 42.4677C25.3213 35.6566 33.163 32.7252 40.66 29.88C46.0888 27.8108 51.173 25.914 55.3093 22.6378C58.3253 15.2231 64.0127 9.27412 71.9405 5.39435C79.2651 1.77323 87.9686 0.221311 96.4996 0.997266L97.0166 1.08349L97.5337 1.25593C100.722 2.29054 103.48 3.67 106.065 5.39435V17.2923C102.876 14.1885 99.4295 11.7744 95.207 10.3087C88.5718 9.79143 81.8503 10.9985 76.163 13.7574C69.9586 16.8612 65.7361 21.2583 63.7541 27.0349L63.3233 28.1557L62.3754 28.9316C56.8604 33.6736 50.3112 36.1739 44.0207 38.5017C37.2131 41.0883 30.8363 43.5023 26.4415 48.5029C14.8945 61.6942 3.34737 85.5763 13.9466 97.4743C14.5498 98.164 15.153 98.7675 15.7562 99.4573C22.9085 107.389 31.0087 116.442 32.0427 128.599C32.3013 131.961 32.5598 135.496 32.7321 138.859C33.3353 150.67 34.0247 162.913 39.3674 173.001C42.1249 176.363 45.5718 179.553 50.1389 183.088C59.1008 189.899 68.1489 194.9 77.0247 197.831C80.7301 199.038 84.694 199.814 88.9165 200.59L89.5197 200.676C95.6379 201.797 100.636 201.883 105.375 200.762L105.72 200.676H106.065C106.151 200.676 106.151 200.676 106.237 200.676V210.074C103.652 210.591 100.981 210.85 98.1369 210.85C94.6038 210.764 91.1569 210.419 87.5377 209.729Z" fill="#F4F4F4"/>
</svg>
