<svg width="79" height="157" viewBox="0 0 79 157" fill="none" xmlns="http://www.w3.org/2000/svg">
<path d="M64.8459 155.484C61.5714 154.881 58.1245 154.191 54.85 153.07C47.5253 150.656 40.2007 146.69 32.9622 141.172C29.0844 138.241 25.9823 135.31 23.5694 132.378L23.3109 132.033L23.1386 131.688C17.8821 122.549 17.1065 112.376 16.331 102.547C16.1586 100.392 15.9863 98.3224 15.8139 96.3394C15.2107 90.3042 11.1606 85.2174 6.93821 79.872C6.335 79.1822 5.81797 78.4063 5.21476 77.7166C-4.69505 65.0426 3.31896 44.7816 14.9522 31.3317C19.5193 26.0725 25.3791 23.6584 31.0664 21.3305C34.7719 19.8648 38.2187 18.3991 41.0624 16.3299C43.6476 10.9845 48.1285 6.75982 54.0744 4.00087C59.6756 1.41436 66.2247 0.293525 72.6015 0.810828H73.0323L73.4632 0.983273C75.4451 1.58679 77.341 2.36273 78.9782 3.31112V14.6918C76.6516 12.6226 74.2387 10.9845 71.2227 10.0361C66.5694 9.69121 61.9161 10.5534 57.866 12.3639C53.5574 14.3469 50.5413 17.2783 48.9041 21.0719L48.4732 22.1065L47.6115 22.7962C43.5614 26.1587 38.9081 28.0555 34.4271 29.866C29.5153 31.849 24.9482 33.7458 21.7598 37.3669C13.7458 46.5059 5.55941 63.3183 12.2808 71.94C12.7979 72.6297 13.4011 73.3195 13.9181 74.0092C18.5714 79.872 23.9141 86.5107 24.7758 95.3048C25.0343 97.4603 25.2067 99.6157 25.379 101.771C26.1546 110.824 26.844 119.446 30.8079 126.688C32.7899 129.016 35.2027 131.257 38.3911 133.758C44.7678 138.586 51.2307 142.121 57.5213 144.19C60.2788 145.138 63.2087 145.656 66.3971 146.259C70.7057 147.035 74.1526 147.121 77.5133 146.432L78.1165 146.345C78.375 146.345 78.5474 146.259 78.8059 146.259V155.657C76.8239 156.002 74.842 156.26 72.6877 156.26C70.2748 156.26 67.6035 156.002 64.8459 155.484Z" fill="#F4F4F4"/>
</svg>
