<svg width="133" height="266" viewBox="0 0 133 266" fill="none" xmlns="http://www.w3.org/2000/svg">
<path d="M110.229 263.887L109.109 263.715C103.766 262.68 98.2509 261.646 92.9944 259.921C80.6718 255.869 68.1768 248.972 55.768 239.574C49.0466 234.487 43.9624 229.659 39.9123 224.572L39.6538 224.228L39.4814 223.796C31.6398 208.881 31.0366 192.069 30.4333 175.86C30.261 171.118 30.0887 166.721 29.744 162.324C28.7961 150.167 19.5756 140.597 10.6137 131.285L8.71792 129.389C-11.1017 108.697 6.9083 72.4854 23.7981 53.2589C31.1227 44.8959 40.8602 41.4472 50.3391 38.0847C57.4914 35.4982 64.3852 33.0841 69.7279 28.6008C73.0886 19.1169 80.0686 11.4436 89.8922 6.44298C98.9403 1.78726 109.798 -0.109516 120.397 0.92509L120.914 1.01131L121.431 1.18373C125.826 2.64942 129.618 4.71864 132.978 7.21893V19.4618C128.928 15.4096 124.447 12.0471 119.018 10.1503C110.315 9.37438 101.525 11.0125 94.2008 14.8061C86.1006 18.9445 80.6718 24.9797 78.259 32.7392L77.9143 33.9463L76.9664 34.8084C70.0726 40.9298 61.7139 43.9475 53.6137 46.7926C44.9103 49.8965 36.7239 52.8278 30.9504 59.3803C15.784 76.6238 0.96241 107.662 15.6117 122.922L17.4213 124.819C27.0726 134.82 37.9303 146.115 39.1367 161.634C39.4814 166.203 39.6538 170.945 39.8261 175.515C40.3432 190.517 40.9464 206.036 47.5817 219.055C51.2009 223.452 55.5956 227.59 61.5415 232.16C73.1748 241.04 84.8081 247.42 96.0966 251.127C100.836 252.679 105.748 253.628 111.004 254.576L112.125 254.748C120.053 256.214 126.602 256.214 132.806 254.748L133.151 254.662V264.146C129.876 264.836 126.602 265.181 123.069 265.181C118.932 265.181 114.796 264.75 110.229 263.887Z" fill="#F4F4F4"/>
</svg>
