<svg width="215" height="429" viewBox="0 0 215 429" fill="none" xmlns="http://www.w3.org/2000/svg">
<path d="M179.389 426.621L176.89 426.19C168.446 424.638 159.742 423 151.47 420.241C131.736 413.689 111.4 402.567 91.149 387.134C80.2051 378.771 72.1049 371.098 65.5558 362.821L65.2973 362.476L65.125 362.045C53.147 338.335 52.8885 311.435 52.5438 285.484C52.4577 277.121 52.3715 269.189 51.8545 261.343C50.5619 239.703 33.4998 223.666 16.9547 208.061L14.9728 206.164C-18.0312 174.954 11.7844 115.809 38.3254 85.8912C49.7863 73.0448 65.2973 67.7855 80.3775 62.7849C92.9586 58.5603 104.85 54.5943 114.157 46.4899C118.724 30.7984 129.41 18.1245 144.921 9.84761C159.225 2.26049 176.287 -0.92954 193.091 0.794803L193.608 0.881026L194.125 1.05346C202.139 3.89862 208.947 8.20948 214.892 13.2963V26.1426C208.257 19.2453 200.933 13.4687 191.54 10.0201C176.89 8.64058 161.552 11.4857 149.229 18.1245C135.355 25.5391 126.394 36.3163 122.688 50.2835L122.343 51.5767L121.396 52.5251C110.452 62.6125 96.6641 67.182 83.3074 71.6653C68.7442 76.4935 55.0428 81.063 45.3054 92.0988C19.2813 121.499 -5.45011 174.178 21.3495 199.439L23.3314 201.25C40.3074 217.286 59.61 235.392 61.0749 260.74C61.592 268.844 61.6781 277.207 61.7643 285.398C62.0228 310.142 62.3675 335.662 73.139 357.475C79.0849 364.976 86.6681 372.046 96.7502 379.806C116.225 394.635 135.614 405.326 154.4 411.533C162.155 414.12 170.169 415.586 178.614 417.138L181.113 417.569C194.039 419.983 204.81 419.983 214.979 417.569V427.053C209.894 428.087 204.638 428.691 199.123 428.691C193.005 428.604 186.456 427.915 179.389 426.621Z" fill="#F4F4F4"/>
</svg>
