<svg width="188" height="374" viewBox="0 0 188 374" fill="none" xmlns="http://www.w3.org/2000/svg">
<path d="M156.698 372.377L154.716 372.032C147.305 370.652 139.722 369.187 132.397 366.773C115.163 361.082 97.4112 351.34 79.7459 337.89C70.2669 330.648 63.1146 323.923 57.4272 316.68L57.1687 316.336L56.9964 315.904C46.3972 295.126 45.9663 271.589 45.6216 248.914C45.5354 241.758 45.3631 234.946 44.9323 228.308C43.7258 209.857 29.3351 195.976 15.3752 182.44L13.3932 180.543C-15.216 152.868 10.808 101.137 33.9884 74.9275C44.0705 63.5468 57.6857 58.9773 70.8701 54.494C81.6416 50.8729 91.81 47.338 99.824 40.4406C104.046 26.8183 113.439 15.8687 127.054 8.62644C139.549 1.98772 154.63 -0.771212 169.365 0.780697L169.882 0.866893L170.399 1.03934C177.207 3.45342 182.98 6.98833 188.064 11.1268V23.8869C182.291 17.9379 175.914 12.9373 167.814 10.0059C155.233 8.79888 141.962 11.2992 131.363 16.9033C119.385 23.1971 111.63 32.4224 108.355 44.3204L108.01 45.6136L107.062 46.4758C97.4973 55.2699 85.4332 59.3222 73.8861 63.2881C61.305 67.599 49.4132 71.565 40.9683 81.1351C18.5635 106.397 -2.80718 151.919 19.8561 173.905L21.7519 175.802C36.315 189.855 52.7739 205.719 54.1527 227.704C54.5836 234.602 54.7559 241.844 54.8421 248.741C55.1868 270.209 55.6176 292.453 65.0104 311.249C70.1807 317.715 76.7298 323.836 85.4332 330.475C102.237 343.321 119.04 352.547 135.327 357.892C142.048 360.134 149.028 361.427 156.439 362.807L158.507 363.151C169.796 365.307 179.275 365.307 188.064 363.065V372.549C183.583 373.498 179.016 373.929 174.191 373.929C168.676 374.187 162.902 373.584 156.698 372.377Z" fill="#F4F4F4"/>
</svg>
