<svg width="324" height="647" viewBox="0 0 324 647" fill="none" xmlns="http://www.w3.org/2000/svg">
<path d="M271.327 643.6L267.019 642.824C254.437 640.496 241.425 638.082 229.103 634.03C198.943 624.115 169.127 607.647 137.933 583.938C121.474 571.35 109.237 559.711 99.4997 547.295L99.155 546.95L98.8965 546.519C81.4897 510.998 81.4897 470.735 81.4897 431.764C81.4897 418.487 81.4897 405.899 80.8865 393.57C79.0769 359.256 51.5017 334.511 24.7883 310.629L22.7202 308.819C0.229204 288.644 -5.45817 257.433 6.26126 218.463C15.2232 188.718 34.2673 155.525 57.2753 129.746C74.165 110.778 97.4316 103.363 120.009 96.1209C139.828 89.7408 158.528 83.7056 173.091 70.6006C179.295 46.6322 194.806 27.3196 217.987 14.7318C238.84 3.35118 265.037 -1.64942 289.768 1.02332L290.371 1.10953L290.888 1.28196C303.987 6.11013 314.586 13.2662 323.892 21.9741V35.1653C313.896 24.3882 302.608 15.5078 288.217 10.1623C265.468 7.83447 241.512 12.404 222.468 22.8363C200.924 34.5618 187.223 51.8914 181.794 74.1355L181.45 75.515L180.416 76.4633C164.215 91.7238 143.189 98.4487 122.766 105.001C100.448 112.157 79.3354 118.968 64.1691 135.953C42.0228 160.784 23.6681 192.684 15.137 221.136C7.7262 245.708 4.10697 279.677 28.9246 301.921L30.9065 303.732C58.9987 328.907 88.125 354.945 90.1069 393.139C90.7963 405.813 90.7101 419.004 90.7101 431.851C90.7101 469.614 90.6239 508.584 106.91 542.036C116.131 553.675 127.678 564.625 143.361 576.609C173.694 599.802 202.648 615.666 231.774 625.322C243.494 629.202 255.644 631.443 268.484 633.857L272.878 634.633C292.267 638.254 308.64 638.341 323.806 634.72V644.203C316.223 645.842 308.468 646.618 300.195 646.618C291.319 646.531 281.754 645.497 271.327 643.6Z" fill="#F4F4F4"/>
</svg>
