<svg width="25" height="48" viewBox="0 0 25 48" fill="none" xmlns="http://www.w3.org/2000/svg">
<path d="M23.4272 47.4263C17.2228 47.2539 11.4492 44.7536 7.14061 40.2703C2.832 35.787 0.591516 29.9242 0.677688 23.7166C0.850033 17.5089 3.34902 11.7324 7.82998 7.4215C12.3109 3.11065 18.2568 0.868999 24.3751 0.955216C24.5474 0.955216 24.7198 0.955216 24.9783 0.955216V10.2667C24.7198 10.2667 24.4612 10.1805 24.2027 10.1805C20.4973 10.0942 16.9642 11.4737 14.2929 14.0602C11.6216 16.6468 10.0705 20.0954 9.98429 23.8028C9.89811 27.5101 11.2769 31.045 13.862 33.7177C16.4472 36.3905 19.8941 37.9424 23.5995 38.0286C24.0304 38.0286 24.5474 38.0286 24.9783 38.0286V47.34C24.6336 47.34 24.2889 47.34 23.9442 47.34C23.7719 47.4263 23.5995 47.4263 23.4272 47.4263Z" fill="#F4F4F4"/>
</svg>
