<svg width="242" height="484" viewBox="0 0 242 484" fill="none" xmlns="http://www.w3.org/2000/svg">
<path d="M202.167 480.866L199.151 480.349C189.672 478.624 179.934 476.728 170.628 473.71C148.395 466.382 125.473 453.794 102.552 436.292C90.2289 426.894 81.0946 418.186 73.77 408.961L73.5115 408.616L73.3391 408.185C59.9824 381.544 59.8101 351.282 59.5515 322.14C59.4654 312.484 59.3792 303.431 58.8622 294.465C57.4834 269.72 37.75 251.442 18.7059 233.768L16.7239 231.957C-20.761 197.212 12.8462 130.738 42.9203 96.941C55.6738 82.5427 73.1668 76.7661 90.1427 71.162C104.533 66.4201 118.149 61.9368 128.748 52.5391C133.746 34.7784 145.552 20.4663 163.044 11.0687C179.073 2.44694 198.289 -1.17419 217.161 0.895023L217.678 0.981246L218.195 1.15368C227.501 4.51615 235.171 9.51674 241.978 15.5519V28.4845C234.567 20.5525 226.209 14.0862 215.523 10.1203C198.892 8.48213 181.313 11.8446 167.353 19.3455C151.584 27.7948 141.415 40.2963 137.279 56.3327L136.934 57.6259L135.9 58.5743C123.664 69.955 107.98 75.128 92.9002 80.0424C76.4413 85.4741 60.8442 90.5609 49.7279 103.149C19.9985 136.601 -7.92136 196.522 22.9283 225.146L24.9103 226.956C44.3852 244.976 66.4453 265.409 67.9964 293.947C68.5135 303.172 68.5997 312.829 68.6858 322.14C68.9444 350.161 69.1167 379.044 81.267 403.702C88.0746 412.237 96.6056 420.255 108.067 429.05C130.127 445.862 152.101 458.018 173.385 465.002C182.089 467.847 191.137 469.572 200.702 471.382L203.718 471.899C218.281 474.658 230.431 474.658 241.806 471.899V481.383C236.119 482.59 230.259 483.194 224.054 483.194C217.333 483.108 210.008 482.332 202.167 480.866Z" fill="#F4F4F4"/>
</svg>
