<svg width="270" height="538" viewBox="0 0 270 538" fill="none" xmlns="http://www.w3.org/2000/svg">
<path d="M225.858 535.111L222.411 534.507C211.898 532.524 201.041 530.541 190.7 527.093C165.969 518.902 140.462 504.935 114.955 485.45C101.253 475.017 91.0849 465.361 82.9847 455.015L82.7262 454.67L82.5538 454.239C67.9045 424.58 67.7321 391.042 67.5598 358.624C67.4736 347.761 67.4736 337.501 66.8704 327.414C65.3193 299.479 43.0007 279.046 21.3715 259.302L19.3895 257.491C-22.4902 219.211 14.9085 145.323 48.3434 107.818C62.4757 91.8682 81.9506 85.5744 100.736 79.453C116.937 74.1937 132.275 69.1931 144.167 58.5022C149.596 38.6722 162.608 22.7221 181.997 12.2036C199.49 2.80589 221.291 -1.41875 241.973 0.822899L242.49 0.909108L243.007 1.08155C253.52 4.87511 262.223 10.6517 269.892 17.6352V30.654C261.62 21.7737 252.227 14.4452 240.421 10.0481C221.722 8.15136 202.075 11.9449 186.391 20.3942C168.64 29.9643 157.351 44.0177 152.784 62.1233L152.44 63.4166L151.405 64.365C137.876 77.0389 120.383 82.7292 103.494 88.2471C85.0528 94.2823 67.646 99.9726 55.151 113.94C21.8024 151.444 -9.39204 218.607 25.5077 250.594L27.4897 252.405C49.3775 272.407 74.1951 295.082 76.0047 326.896C76.6079 337.242 76.6079 348.106 76.6941 358.538C76.8664 389.749 76.9526 422.08 90.4817 449.67C98.0648 459.24 107.63 468.292 120.556 478.121C145.201 496.917 169.76 510.453 193.544 518.298C203.281 521.488 213.363 523.385 224.049 525.368L227.496 525.972C243.696 528.989 257.225 529.076 269.892 526.058V535.542C263.602 536.921 257.053 537.611 250.159 537.611C242.662 537.525 234.562 536.749 225.858 535.111Z" fill="#F4F4F4"/>
</svg>
