<svg width="161" height="320" viewBox="0 0 161 320" fill="none" xmlns="http://www.w3.org/2000/svg">
<path d="M134.006 318.132L132.455 317.873C126.079 316.666 119.529 315.459 113.239 313.39C98.4172 308.476 83.3371 300.199 68.2569 288.732C60.1567 282.524 54.0385 276.748 49.1267 270.626L48.8682 270.282L48.6958 269.851C39.4754 252.004 38.9583 231.829 38.4413 212.43C38.2689 206.481 38.1828 200.877 37.7519 195.359C36.7178 180.098 24.8261 168.287 13.4513 156.906L11.5555 155.009C0.697809 144.146 -1.88732 127.937 4.05857 108.28C8.53953 93.4502 18.0185 76.9827 29.3932 64.2226C38.0966 54.3938 49.816 50.3416 61.1046 46.3756C70.0665 43.2718 78.5976 40.2542 85.319 34.6501C89.1106 23.097 97.297 13.7855 109.016 7.6641C119.788 2.05998 132.714 -0.354086 145.381 0.939172L145.898 1.02537L146.415 1.19781C152.016 3.09459 156.756 5.93975 160.978 9.216V21.7175C156.066 16.7169 150.638 12.5785 143.83 10.0782C133.231 9.12978 122.115 11.199 113.153 15.8547C103.157 21.0278 96.5214 28.7011 93.6778 38.5298L93.333 39.8231L92.3852 40.6853C84.1126 48.0999 73.9443 51.6349 64.1206 55.0835C53.5214 58.7909 43.4393 62.2396 36.3732 70.2578C17.5876 91.4672 -0.50857 129.834 18.1046 148.371L20.0004 150.267C32.0646 162.251 45.7659 175.874 47.0585 194.669C47.4894 200.446 47.5755 206.395 47.7479 212.171C48.1787 230.449 48.6958 249.331 56.7098 265.195C61.1046 270.627 66.5335 275.8 73.9443 281.317C88.1627 292.181 102.381 299.94 116.169 304.51C121.856 306.407 127.888 307.527 134.179 308.734L135.73 308.993C145.467 310.804 153.481 310.804 160.978 308.907V318.477C157.101 319.253 153.137 319.684 149 319.684C144.347 319.684 139.349 319.167 134.006 318.132Z" fill="#F4F4F4"/>
</svg>
