<svg width="297" height="593" viewBox="0 0 297 593" fill="none" xmlns="http://www.w3.org/2000/svg">
<path d="M248.55 589.355L244.672 588.666C233.125 586.51 221.233 584.268 209.858 580.561C182.197 571.422 154.966 556.42 126.443 534.694C111.363 523.14 100.161 512.536 91.1989 501.155L90.9404 500.81L90.7681 500.379C74.74 467.789 74.6538 430.888 74.5677 395.194C74.5677 383.124 74.5677 371.743 73.9645 360.449C72.3272 329.324 47.3372 306.735 23.209 284.922L21.227 283.112C0.631842 264.489 -4.53849 235.779 6.23305 199.998C14.4194 172.754 31.9124 142.405 52.9384 118.696C68.4494 101.28 89.8201 94.3825 110.501 87.6575C128.511 81.7947 145.574 76.3631 158.758 64.3789C164.532 42.4797 178.836 24.8052 200.121 13.2521C219.251 2.8198 243.293 -1.74971 265.956 0.750585L266.473 0.836808L266.99 1.00924C278.71 5.3201 288.447 11.8726 296.978 19.7184V32.7372C287.844 22.9084 277.503 14.804 264.405 9.88961C243.724 7.8204 221.922 11.9588 204.515 21.4427C184.868 32.1336 172.373 47.7389 167.375 68L167.031 69.2932L165.996 70.2416C151.089 84.2088 131.872 90.4165 113.259 96.4517C92.9224 103.004 73.6198 109.298 59.8322 124.817C22.8643 166.374 -11.6908 240.779 27.4314 276.128L29.4134 277.939C54.9204 301.045 81.3753 324.927 83.2711 359.845C83.8743 371.312 83.8743 383.382 83.9604 395.022C84.0466 429.509 84.0466 465.203 98.9544 495.723C107.313 506.328 117.912 516.329 132.217 527.279C159.534 548.143 186.678 563.059 212.96 571.767C223.732 575.302 234.762 577.371 246.568 579.527L250.445 580.216C268.283 583.579 283.191 583.579 297.151 580.302V589.786C290.171 591.252 283.018 592.028 275.521 592.028C266.99 592.028 258.201 591.166 248.55 589.355Z" fill="#F4F4F4"/>
</svg>
