<svg width="52" height="102" viewBox="0 0 52 102" fill="none" xmlns="http://www.w3.org/2000/svg">
<path d="M47.842 101.843C46.0323 101.843 44.1365 101.671 42.0684 101.24C40.0003 100.809 37.7598 100.378 35.6055 99.6879C30.7798 98.0498 26.0403 95.5495 21.4732 92.0146C18.9742 90.1178 16.9923 88.3073 15.2688 86.3243L14.9241 85.807C10.874 79.4269 9.83997 72.3571 8.89207 65.546C8.8059 64.8562 8.71974 64.1664 8.63357 63.5629C8.20271 60.3729 6.39307 57.3553 4.4111 54.1653C3.89407 53.3031 3.37703 52.5271 2.94616 51.665C-2.31035 42.3535 2.77382 29.3347 10.2708 20.5406C13.4592 16.747 17.5955 14.8502 21.3009 13.0397C23.2829 12.0913 25.1786 11.2291 26.7297 10.1083C28.8841 6.91826 32.1586 4.41797 36.1225 2.77984C39.9141 1.22793 44.2227 0.538184 48.5313 0.883052H48.876L49.2207 0.969275C50.1686 1.22793 51.0303 1.48658 51.8921 1.83145V12.35C50.5133 11.3153 49.0484 10.5394 47.4111 10.1083C44.7398 9.93587 41.9822 10.4532 39.5694 11.4016C37.0704 12.4362 35.1746 13.9019 34.0544 15.7986L33.6235 16.5746L32.9342 17.0919C30.4352 18.9887 27.7638 20.1957 25.2648 21.4028C22.0764 22.9547 19.2327 24.2479 17.3369 26.4896C12.0804 32.611 8.11652 41.9224 11.0464 47.0092C11.4772 47.7852 11.9081 48.5612 12.4251 49.3371C14.5794 52.9582 17.0785 57.0967 17.854 62.1835C17.9402 62.8732 18.0263 63.563 18.1125 64.2527C18.9742 70.2879 19.7498 75.9782 22.5935 80.5477C23.7999 81.9272 25.2648 83.2205 27.0744 84.5999C30.866 87.4451 34.7438 89.5143 38.5354 90.8076C40.1726 91.3249 42.0684 91.756 43.7918 92.1008C46.2047 92.5319 48.359 92.6181 50.2548 92.3595L50.7718 92.2733C51.1165 92.2733 51.4612 92.1008 51.9782 91.9284V101.498C51.892 101.498 51.7197 101.499 51.6335 101.585C50.4271 101.671 49.1345 101.843 47.842 101.843Z" fill="#F4F4F4"/>
</svg>
