<svg width="351" height="700" viewBox="0 0 351 700" fill="none" xmlns="http://www.w3.org/2000/svg">
<path d="M248.347 687.412L248.089 687.326C213.447 674.825 180.271 656.547 149.421 633.009C131.584 619.387 118.313 606.713 107.714 593.349L107.369 593.005L107.111 592.573C87.8943 553.345 88.1528 508.684 88.3252 465.489C88.4113 451.953 88.4113 439.107 87.9805 426.433C85.74 390.739 57.734 364.874 30.5897 339.871C28.5216 337.974 26.5396 336.077 24.4715 334.267C-0.259946 313.23 -6.37818 279.777 6.72001 237.531C16.2851 206.493 36.8803 170.282 61.6979 140.623L61.8703 140.364C80.4835 120.793 105.215 112.689 129.085 104.843C150.886 97.6868 171.481 90.9619 187.596 76.3049C194.231 50.2673 210.948 29.3166 236.024 15.6081C258.602 3.27899 286.866 -2.15268 313.666 0.778699L314.269 0.864915L314.786 1.03735C329.004 6.29659 340.638 14.0561 350.892 23.4538V36.4726C339.948 25.0919 327.626 15.7805 312.115 10.0039C287.383 7.41742 261.273 12.5042 240.505 23.7987C216.98 36.645 202.159 55.5266 196.299 79.9261L195.954 81.3055L194.92 82.2539C177.169 98.9801 154.161 106.567 131.928 113.809C108.059 121.569 85.5676 128.984 68.5917 146.744C44.5496 175.541 24.6438 210.545 15.4234 240.376C3.35929 279.346 8.44345 308.574 30.4174 327.283L30.5897 327.456C32.6579 329.352 34.6398 331.249 36.708 333.146C65.231 359.442 94.6157 386.601 97.0286 426.002V426.088C97.5456 439.021 97.4594 452.471 97.4594 465.576C97.2871 507.477 97.0286 550.844 115.125 588.09C125.121 600.764 137.788 612.748 154.85 625.767C184.924 648.701 217.239 666.548 250.932 678.704C265.495 683.015 280.403 686.464 295.397 688.792L295.656 688.878C314.872 693.103 333.399 693.103 350.72 689.05V698.534C347.962 699.138 345.205 699.655 342.361 700H305.307C301.515 699.483 297.638 698.793 293.76 697.931C278.594 695.344 263.255 691.809 248.347 687.412Z" fill="#F4F4F4"/>
</svg>
